<svg xmlns="http://www.w3.org/2000/svg" viewBox="0 0 14.26 14.26"><defs><style>.cls-1{fill:#ffffff;}.cls-2{fill:none;}</style></defs><g id="Capa_2" data-name="Capa 2"><g id="Capa_1-2" data-name="Capa 1"><path id="iconmonstr-file-19" class="cls-1" d="M8.09,4.93S8.88.6,6.28.6H2.86A1.21,1.21,0,0,0,2,1a1.35,1.35,0,0,0-.28.74c-.06.73-.07,4.95,0,10.72a1.31,1.31,0,0,0,.31.83,1.35,1.35,0,0,0,.79.38h8.61a1.24,1.24,0,0,0,.83-.39,1.13,1.13,0,0,0,.29-.74V6.78a.6.6,0,0,0,0-.19C12.38,5.37,8.81,5,8.09,4.93Zm.14,6H3.9v-.58H8.23ZM10.4,9.26H3.9V8.68h6.5Zm0-1.59H3.9V7.09h6.5ZM8.52.6a18,18,0,0,1,4,3.75A4.9,4.9,0,0,0,9.24,3.7,4.31,4.31,0,0,0,8.52.6Z"/><rect class="cls-2" width="14.26" height="14.26"/></g></g></svg>