<svg xmlns="http://www.w3.org/2000/svg" xmlns:xlink="http://www.w3.org/1999/xlink" viewBox="0 0 11.3 11.23"><defs><style>.cls-1{fill:none;}.cls-2{clip-path:url(#clip-path);}.cls-3{fill:#fd7315;}</style><clipPath id="clip-path" transform="translate(-1.48 -1.52)"><rect class="cls-1" width="14.26" height="14.26"/></clipPath></defs><g id="Capa_2" data-name="Capa 2"><g id="Capa_1-2" data-name="Capa 1"><g class="cls-2"><path id="iconmonstr-computer-5" class="cls-3" d="M2.45,1.52a1,1,0,0,0-1,1v7a1,1,0,0,0,1,1h9.36a1,1,0,0,0,1-1v-7a1,1,0,0,0-1-1ZM11.81,8.1H2.45V2.49h9.36ZM8.66,10.42a4,4,0,0,0,1.28,2.32H4.32a3.52,3.52,0,0,0,1.27-2.32Z" transform="translate(-1.48 -1.52)"/></g></g></g></svg>