<svg xmlns="http://www.w3.org/2000/svg" xmlns:xlink="http://www.w3.org/1999/xlink" viewBox="0 0 10.93 10.64"><defs><style>.cls-1{fill:none;}.cls-2{clip-path:url(#clip-path);}.cls-3{fill:#FFFFFF;}</style><clipPath id="clip-path" transform="translate(-1.66 -1.81)"><rect class="cls-1" width="14.26" height="14.26"/></clipPath></defs><g id="Capa_2" data-name="Capa 2"><g id="Capa_1-2" data-name="Capa 1"><g class="cls-2"><path id="iconmonstr-paper-plane-1" class="cls-3" d="M12.52,1.83a.28.28,0,0,1,.07.25c0,.39-1.83,6.78-2.54,9.27a.43.43,0,0,1-.27.3.41.41,0,0,1-.48-.21L6.06,8.58,9.73,4.69,4.79,8.05l-3-.73s-.08,0-.1-.08a.15.15,0,0,1,.1-.18L12.22,1.87C12.29,1.84,12.43,1.77,12.52,1.83ZM5.69,9.48v2.74a.22.22,0,0,0,.15.22.22.22,0,0,0,.26-.1l1.08-1.52Z" transform="translate(-1.66 -1.81)"/></g></g></g></svg>