<svg xmlns="http://www.w3.org/2000/svg" viewBox="0 0 192.12 97.11"><defs><style>.cls-1{font-size:68.34px;fill:#eb6428;font-family:Poppins-Regular, Poppins;}.cls-2{font-size:54px;letter-spacing:0em;}.cls-3{font-size:36px;}.cls-4{fill:#ec6329;stroke:#eb6428;stroke-miterlimit:10;}</style></defs><g id="Capa_2" data-name="Capa 2"><g id="Capa_1-2" data-name="Capa 1"><text class="cls-1" transform="translate(0 58.02)">Tod<tspan class="cls-2" x="126.91" y="0" xml:space="preserve">   </tspan><tspan class="cls-3" x="170.16" y="0">it</tspan></text><path class="cls-4" d="M129.39,38.47c-.76,15,15.68,24.23,28.13,17.39,12.71-6.67,12.82-26.56-.05-33.2-11.67-6.71-28,2-28.08,15.81Zm10.53-8.38A24.75,24.75,0,0,0,138,38.47h-6.83c.42-4.57,1.86-8.17,4.33-10.74a10.68,10.68,0,0,0,2.65,1.55c.61.26,1.19.52,1.79.81Zm3.55-7.25a27.21,27.21,0,0,0-3.1,5.78,20,20,0,0,1-3.73-2.07,14.34,14.34,0,0,1,6.83-3.71Zm2.26-.5a8.3,8.3,0,0,1,1.73-.1v8.19a11.16,11.16,0,0,1-2.47-.34c-1-.21-2.07-.5-3.12-.81a32.09,32.09,0,0,1,3.86-6.94Zm1.73,9.83v6.3h-7.88a20.34,20.34,0,0,1,1.73-7.8A18.27,18.27,0,0,0,147.46,32.17Zm0,7.9v6.39a17.07,17.07,0,0,0-6,1.5,19.42,19.42,0,0,1-1.21-3.73,19.92,19.92,0,0,1-.63-4.16Zm-9.48,0a27.6,27.6,0,0,0,1.84,8.44c-2.71,1.36-4.15,2.13-4.34,2.28a17.55,17.55,0,0,1-4.2-10.72ZM147.46,48v8.49l-1.73-.1a33.44,33.44,0,0,1-3.86-7A27,27,0,0,1,147.46,48Zm-7.09,2a40.88,40.88,0,0,0,3.2,5.84A21.33,21.33,0,0,1,136.64,52a27.69,27.69,0,0,1,3.73-2Zm10.45,6.39-1.7.1V48.06a19.56,19.56,0,0,1,5.59,1.24,36,36,0,0,1-3.89,7ZM159.94,52a12.67,12.67,0,0,1-6.83,3.65,16.46,16.46,0,0,0,1.44-2.15c.49-.79,1.31-2.94,1.61-3.55a28.61,28.61,0,0,1,3.78,2Zm5.41-11.93a16.92,16.92,0,0,1-4.2,10.72c-1.15-.8-2.8-1.51-4.39-2.39a24.25,24.25,0,0,0,2-8.33Zm-8.35,0A21.87,21.87,0,0,1,155.26,48a13.14,13.14,0,0,0-2.91-1.07,8.86,8.86,0,0,0-3.23-.42V40.07Zm-7.88-7.9a17.08,17.08,0,0,0,6.14-1.5c.86,1.38,1.79,6,1.74,7.8h-7.88v-6.3Zm11.93-4.44c2.67,2.47,4.36,7.1,4.31,10.74h-6.71a22.46,22.46,0,0,0-1.88-8.38,32.23,32.23,0,0,0,4.28-2.36Zm-1.11-1.18a25.47,25.47,0,0,1-3.68,2.17,24.64,24.64,0,0,0-3.36-6,19.43,19.43,0,0,1,7,3.81Zm-9.22-4.21a26.77,26.77,0,0,1,4,6.83c-1,.66-2.89,1.08-5.59,1.26V22.24a5.85,5.85,0,0,1,1.6.1Z"/></g></g></svg>