<svg xmlns="http://www.w3.org/2000/svg" viewBox="0 0 157.27 79.58"><defs><style>.cls-1,.cls-2,.cls-3,.cls-4,.cls-5{isolation:isolate;}.cls-1{font-size:37.01px;}.cls-1,.cls-3,.cls-4,.cls-5,.cls-6{fill:#fd611a;}.cls-1,.cls-3,.cls-4,.cls-5{font-family:Poppins-Regular, Poppins;}.cls-3{font-size:28.56px;}.cls-4{font-size:22.57px;}.cls-5{font-size:15.05px;}</style></defs><g id="Capa_2" data-name="Capa 2"><g id="Capa_1-2" data-name="Capa 1"><text class="cls-1" transform="translate(0 58.41)">Cadetes</text><g id="Capa_1-2-2" data-name="Capa 1-2"><g class="cls-2"><text class="cls-3" transform="translate(0 24.25)">Tod</text><text class="cls-4" transform="translate(53.05 24.25)"><tspan xml:space="preserve">   </tspan></text><text class="cls-5" transform="translate(71.12 24.25)">it</text><path class="cls-6" d="M54.08,16.08c-.31,6.27,6.56,10.13,11.76,7.27s5.36-11.1,0-13.88C60.94,6.67,54.12,10.31,54.08,16.08Zm4.4-3.5a10.26,10.26,0,0,0-.8,3.5H54.83a7.15,7.15,0,0,1,1.81-4.49,4.37,4.37,0,0,0,1.1.65l.75.34Zm1.49-3A11.22,11.22,0,0,0,58.67,12a8.47,8.47,0,0,1-1.56-.86A6,6,0,0,1,60,9.55Zm.94-.21a3,3,0,0,1,.73,0v3.42a5.2,5.2,0,0,1-1-.14c-.41-.09-.86-.21-1.3-.34A13.25,13.25,0,0,1,60.91,9.34Zm.73,4.11v2.63h-3.3a8.54,8.54,0,0,1,.72-3.26,7.69,7.69,0,0,0,2.58.63Zm0,3.3v2.67a7,7,0,0,0-2.51.63,8.62,8.62,0,0,1-.51-1.56,7.87,7.87,0,0,1-.26-1.74Zm-4,0a11.57,11.57,0,0,0,.77,3.53c-1.13.56-1.73.89-1.81.95a7.37,7.37,0,0,1-1.76-4.48Zm4,3.31v3.55l-.73,0a14.15,14.15,0,0,1-1.61-2.93A11.61,11.61,0,0,1,61.64,20.06Zm-3,.84A17.52,17.52,0,0,0,60,23.34a8.8,8.8,0,0,1-2.9-1.61,12.93,12.93,0,0,1,1.56-.83ZM63,23.57l-.71,0V20.09a8.18,8.18,0,0,1,2.34.52A15.46,15.46,0,0,1,63,23.53Zm3.81-1.84A5.29,5.29,0,0,1,64,23.26a7,7,0,0,0,.6-.9c.2-.33.55-1.23.67-1.48a12.47,12.47,0,0,1,1.58.83Zm2.26-5a7.05,7.05,0,0,1-1.75,4.48c-.48-.34-1.17-.63-1.84-1a10,10,0,0,0,.84-3.48Zm-3.49,0a9.19,9.19,0,0,1-.72,3.31,5.93,5.93,0,0,0-1.22-.44,3.45,3.45,0,0,0-1.35-.18V16.75Zm-3.29-3.3a7.14,7.14,0,0,0,2.57-.63,9.19,9.19,0,0,1,.72,3.26H62.33Zm5-1.86a6.57,6.57,0,0,1,1.8,4.49H66.31a9.34,9.34,0,0,0-.78-3.5,14.82,14.82,0,0,0,1.79-1Zm-.47-.49a11.33,11.33,0,0,1-1.54.91,10.14,10.14,0,0,0-1.4-2.51,8.28,8.28,0,0,1,2.93,1.59ZM63,9.34a11.17,11.17,0,0,1,1.67,2.85,5.3,5.3,0,0,1-2.34.53V9.3a2.49,2.49,0,0,1,.67,0Z"/></g></g></g></g></svg>